<?xml version="1.0" encoding="iso-8859-1"?>
<!-- Generator: Adobe Illustrator 19.0.0, SVG Export Plug-In . SVG Version: 6.00 Build 0)  -->
<svg version="1.1" id="Layer_1" xmlns="http://www.w3.org/2000/svg" xmlns:xlink="http://www.w3.org/1999/xlink" x="0px" y="0px"
	 viewBox="0 0 512 512" style="enable-background:new 0 0 512 512;" xml:space="preserve">
<path style="fill:#ff0700;" d="M512,256.792l-67.2-54.224l43.2-74.96l-91.2-7.968l-8-87.728L312,68.6L259.2,0.008l-49.6,70.176
	l-80-41.472l-4.8,90.912l-89.6,4.784l33.6,86.128L0,252.008l70.4,52.64l-35.2,74.96l88,9.568l4.8,89.328l81.6-38.288l54.4,71.776
	l48-71.776l75.2,36.688l6.4-89.328l88-1.6l-32-73.376L512,256.792z"/>
<g>
	<path style="fill:#FFFFFF;" d="M146.336,303.256c6.448,0.896,15.888,0.752,24.576-2.304c9.376-3.28,12.976-8.896,10.912-14.784
		c-1.968-5.632-7.376-7.344-19.584-7.424c-16.816,0.016-29.504-4.864-34.096-17.984c-5.392-15.408,3.328-31.664,24.624-39.12
		c10.176-3.568,18.416-4.032,24.624-3.504l1.216,18.064c-4.24-0.464-11.552-0.784-20.384,2.32s-11.696,8.624-10.064,13.296
		c2,5.76,8,6.512,21.184,6.88c17.984,0.304,28.384,5.984,32.848,18.704c5.28,15.12-1.872,32.064-26.624,40.736
		c-10.32,3.616-21.424,4.464-27.504,3.456L146.336,303.256z"/>
	<path style="fill:#FFFFFF;" d="M262.928,286.04l-3.488-6.144l-0.4,0.144c-2.448,6.72-8.16,11.888-15.92,14.592
		c-13.264,4.64-24.544-2.24-28.208-12.672c-5.936-17.008,6.464-30.528,29.68-38.48l-0.336-0.96c-1.216-3.472-4.832-7.76-14.88-4.256
		c-6.704,2.336-12.992,7.088-16.336,11.28l-8.336-11.808c3.664-4.144,11.52-10.48,23.424-14.656
		c21.84-7.648,33.296,2.768,38.688,18.176l7.968,22.768c2.192,6.288,4.56,12.224,6.496,15.6L262.928,286.04z M249.712,255.96
		c-10.752,3.616-18.176,9.04-15.408,16.96c1.824,5.216,6.208,6.56,10.768,4.976c5.072-1.776,8.064-6.576,7.936-11.2
		c-0.096-1.168-0.384-2.416-0.816-3.632L249.712,255.96z"/>
	<path style="fill:#FFFFFF;" d="M263.152,179.272l20.336-7.12l33.264,95.04l-20.336,7.12L263.152,179.272z"/>
	<path style="fill:#FFFFFF;" d="M339.744,229.704c3.616,8.224,13.328,9.312,22.832,5.984c6.976-2.432,12.256-5.344,17.12-9.008
		l7.52,12.864c-5.76,5.024-13.456,9.232-22.304,12.336c-22.224,7.76-39.44-0.64-46.592-21.12
		c-5.808-16.592-1.936-38.544,20.832-46.496c21.136-7.408,34.96,6.256,40.624,22.432c1.216,3.488,1.888,6.704,2.144,8.288
		L339.744,229.704z M358.816,207.416c-1.712-4.976-6.768-12.512-16.16-9.232c-8.56,3.008-9.328,11.984-7.936,17.664L358.816,207.416
		z"/>
</g>
</svg>
